# xmcd CD database file
#
# Track frame offsets:
#	150
#	10591
#	27862
#	43283
#	57854
#	71205
#	84199
#	98441
#	111582
#	124914
#	138579
#	151984
#	171530
#	185229
#	197792
#	212008
#	227308
#	238996
#	251956
#	266207
#	278084
#	292961
#	304097
#	320582
#
# Disc length: 4452 seconds
#
# Revision: 0
# Processed by: cddbd v1.5.2PL0 Copyright (c) Steve Scherf et al.
# Submitted via: CDex 1.51
#
DISCID=6b116218
DTITLE=Django Reinhardt - BD JAZZ Django Reinhardt Volume 2 CD1
DYEAR=1900
DGENRE=Jazz
TTITLE0=Ride, red, ride
TTITLE1=A blues riff
TTITLE2=Duke and Dukie
TTITLE3=Del salle
TTITLE4=For sentimental reasons
TTITLE5=Folie à Amphion
TTITLE6=Django's blues
TTITLE7=I love you
TTITLE8=Mano
TTITLE9=Gipsy with a song
TTITLE10=Double whisky
TTITLE11=Troublant boléro
TTITLE12=Flèche d'or
TTITLE13=Anouman
TTITLE14=Dr blues
TTITLE15=Blues for Ike
TTITLE16=September song
TTITLE17=Night and day
TTITLE18=Insensiblement
TTITLE19=Manoir de mes rêves
TTITLE20=Nuages
TTITLE21=Brazil
TTITLE22=Confessin'
TTITLE23=Chez moi
EXTD=
EXTT0=
EXTT1=
EXTT2=
EXTT3=
EXTT4=
EXTT5=
EXTT6=
EXTT7=
EXTT8=
EXTT9=
EXTT10=
EXTT11=
EXTT12=
EXTT13=
EXTT14=
EXTT15=
EXTT16=
EXTT17=
EXTT18=
EXTT19=
EXTT20=
EXTT21=
EXTT22=
EXTT23=
PLAYORDER=
